# Aspose.3D Wavefront OBJ Exporter
# Copyright 2004-2024 Aspose Pty Ltd.
# File created: 03/30/2024 20:37:53

g obj_5965937

#
# object obj_5965937
#

v 10 0 55
v 0 0 55
v 10 0 33
v 0 0 0
v 50 0 0
v 40 0 33
v 50 0 55
v 40 0 55
v 10 17 55
v 10 17 35
v 0 17 55
v 0 17 35
v 15 40 15
v 0 40 15
v 15 30 15
v 0 24 15
v 50 24 15
v 35 30 15
v 50 40 15
v 35 40 15
v 40 17 55
v 50 17 55
v 0 40 0
v 0 24 35
v 15 40 0
v 15 30 0
v 35 30 0
v 35 40 0
v 50 40 0
v 50 17 35
v 50 24 35
v 10 24 35
v 10 24 33
v 40 24 33
v 40 24 35
v 40 17 35
# 36 vertices

vn 0 -1 0
vn 0 1 0
vn 0 0 1
vn -1 0 0
vn 1 0 0
vn 0 0 -1
# 6 vertex normals

s 1
f 1//1 2//1 3//1
f 3//1 2//1 4//1
f 3//1 4//1 5//1
f 3//1 5//1 6//1
f 6//1 5//1 7//1
f 6//1 7//1 8//1
f 9//2 10//2 11//2
f 11//2 10//2 12//2
f 13//3 14//3 15//3
f 15//3 14//3 16//3
f 15//3 16//3 17//3
f 15//3 17//3 18//3
f 18//3 17//3 19//3
f 18//3 19//3 20//3
f 8//3 7//3 21//3
f 21//3 7//3 22//3
f 9//3 11//3 1//3
f 1//3 11//3 2//3
f 11//4 12//4 2//4
f 2//4 12//4 4//4
f 4//4 12//4 16//4
f 4//4 16//4 23//4
f 23//4 16//4 14//4
f 12//4 24//4 16//4
f 14//2 13//2 23//2
f 23//2 13//2 25//2
f 13//5 15//5 25//5
f 25//5 15//5 26//5
f 15//2 18//2 26//2
f 26//2 18//2 27//2
f 18//4 20//4 27//4
f 27//4 20//4 28//4
f 20//2 19//2 28//2
f 28//2 19//2 29//2
f 22//5 7//5 30//5
f 30//5 7//5 5//5
f 30//5 5//5 17//5
f 17//5 5//5 29//5
f 17//5 29//5 19//5
f 17//5 31//5 30//5
f 32//2 33//2 24//2
f 24//2 33//2 16//2
f 16//2 33//2 17//2
f 17//2 33//2 34//2
f 17//2 34//2 31//2
f 31//2 34//2 35//2
f 25//6 26//6 23//6
f 23//6 26//6 4//6
f 4//6 26//6 27//6
f 4//6 27//6 5//6
f 5//6 27//6 29//6
f 29//6 27//6 28//6
f 34//4 6//4 36//4
f 36//4 6//4 8//4
f 36//4 8//4 21//4
f 36//4 35//4 34//4
f 3//3 6//3 33//3
f 33//3 6//3 34//3
f 9//5 1//5 10//5
f 10//5 1//5 3//5
f 10//5 3//5 33//5
f 33//5 32//5 10//5
f 10//3 32//3 12//3
f 12//3 32//3 24//3
f 35//3 36//3 31//3
f 31//3 36//3 30//3
f 36//2 21//2 30//2
f 30//2 21//2 22//2
#68 polygons

